<svg xmlns="http://www.w3.org/2000/svg" xmlns:xlink="http://www.w3.org/1999/xlink" width="260" height="27.78" viewBox="0 0 260 27.78">
  <defs>
    <linearGradient id="linear-gradient" x1="0.5" x2="0.5" y2="1" gradientUnits="objectBoundingBox">
      <stop offset="0" stop-color="#d5379a"/>
      <stop offset="0.72" stop-color="#7675c1"/>
      <stop offset="1" stop-color="#7278c3"/>
    </linearGradient>
  </defs>
  <g id="Logo" transform="translate(0.001)">
    <g id="Camada_1" data-name="Camada 1" transform="translate(-0.001)">
      <path id="Caminho_1" data-name="Caminho 1" d="M15.715.09H27.874V5.484H14.926a9.129,9.129,0,0,0-5.317,1.29,8.465,8.465,0,0,0-3.774,4.987,9.787,9.787,0,0,0-.289,2.159,8.964,8.964,0,0,0,2.35,5.9,8.426,8.426,0,0,0,2.889,1.963,10.079,10.079,0,0,0,4.067.669H27.874v5.392H15.463q-4.759,0-7.05-1.156A13.72,13.72,0,0,1,0,13.956,13.684,13.684,0,0,1,4.911,3.376,13.9,13.9,0,0,1,10.726.495,20.281,20.281,0,0,1,15.715.09ZM13.365,11.3H27.874v5.335H13.365Z" transform="translate(0.001 -0.072)" fill="url(#linear-gradient)"/>
      <path id="Caminho_2" data-name="Caminho 2" d="M171.15,63.26v4.016H157.07V63.26Z" transform="translate(-125.111 -50.388)" fill="url(#linear-gradient)"/>
      <path id="Caminho_3" data-name="Caminho 3" d="M231.929.19h15.447q8.4,0,11.653,7.337a12.1,12.1,0,0,1,.789,4.391,11.494,11.494,0,0,1-3.813,8.546,12.461,12.461,0,0,1-5.76,2.812,17.774,17.774,0,0,1-2.657.173l-10.092.116v4.352H231.89V18.081h15.26a6.942,6.942,0,0,0,4.373-1.117,6.33,6.33,0,0,0,2.543-3.662,6.059,6.059,0,0,0,.153-1.176v-.58a6.293,6.293,0,0,0-1.868-4.236A6.388,6.388,0,0,0,248.037,5.6H231.929Z" transform="translate(-184.707 -0.151)" fill="url(#linear-gradient)"/>
      <path id="Caminho_4" data-name="Caminho 4" d="M383.33.19h5.585V13.306q0,5.508,4.218,8.011a8.791,8.791,0,0,0,4.912,1.221h13.211v5.392H398.234a14.483,14.483,0,0,1-8.456-2.216,13.294,13.294,0,0,1-2.649-2.163,14.292,14.292,0,0,1-3.1-5.2,18.111,18.111,0,0,1-.694-5.683Z" transform="translate(-305.334 -0.151)" fill="url(#linear-gradient)"/>
      <path id="Caminho_5" data-name="Caminho 5" d="M549.882,0H562.7V27.772h-5.561V5.412l-4.969.018h-1.194q-4.161,0-4.623.348a7.86,7.86,0,0,0-4.2,2.869,9.146,9.146,0,0,0-1.85,5.258,8.609,8.609,0,0,0,2.5,5.951,7.426,7.426,0,0,0,2.889,1.925,10.157,10.157,0,0,0,4.179.61h3.866v5.374h-4.631a13.968,13.968,0,0,1-8.725-2.716,12.656,12.656,0,0,1-3.447-3.7,12.988,12.988,0,0,1-2.157-7.01v-.814a13.46,13.46,0,0,1,3.756-9.187,13.1,13.1,0,0,1,3.715-2.781,13.886,13.886,0,0,1,2.871-1.1A18.6,18.6,0,0,1,549.882,0Z" transform="translate(-425.968 0)" fill="url(#linear-gradient)"/>
      <path id="Caminho_6" data-name="Caminho 6" d="M697.473,27.923V23.377a17,17,0,0,1-6.145-3.083,13.434,13.434,0,0,1-2.985-3.428,13.406,13.406,0,0,1-1.483-3.312,17.957,17.957,0,0,1-.61-5.239V.19h5.585V8.567a9.569,9.569,0,0,0,1.424,5.644,8.157,8.157,0,0,0,1.848,2.022,8.035,8.035,0,0,0,10.208,0,8.255,8.255,0,0,0,1.849-2.022,9.574,9.574,0,0,0,1.424-5.644V.19h5.585V8.317a17.953,17.953,0,0,1-.61,5.239,12.429,12.429,0,0,1-1.483,3.312,13.532,13.532,0,0,1-2.964,3.428,17.206,17.206,0,0,1-6.163,3.081v4.546Z" transform="translate(-546.619 -0.151)" fill="url(#linear-gradient)"/>
      <path id="Caminho_7" data-name="Caminho 7" d="M853.367.09H865.52V5.484H852.573a9.125,9.125,0,0,0-5.315,1.29,8.465,8.465,0,0,0-3.774,4.987,9.787,9.787,0,0,0-.289,2.159,8.969,8.969,0,0,0,2.348,5.9,8.452,8.452,0,0,0,2.889,1.963,10.061,10.061,0,0,0,4.069.676h13.022v5.392H853.113q-4.755,0-7.048-1.156a13.728,13.728,0,0,1-8.416-12.737,13.686,13.686,0,0,1,4.91-10.58A13.933,13.933,0,0,1,848.38.495,20.253,20.253,0,0,1,853.367.09ZM851.019,11.3h14.5v5.335h-14.5Z" transform="translate(-667.212 -0.072)" fill="url(#linear-gradient)"/>
      <path id="Caminho_8" data-name="Caminho 8" d="M989.078.09h17.834a9.671,9.671,0,0,1,7.4,2.83,6.957,6.957,0,0,1,1.656,2.157A9.065,9.065,0,0,1,1017,9.146v.789a8.824,8.824,0,0,1-2.645,5.951,8.588,8.588,0,0,1-3.081,2.079,13.866,13.866,0,0,1,3.5,9.88h-5.6v-.423A8.479,8.479,0,0,0,1005.5,20.2a9.322,9.322,0,0,0-5.494-1.483H989.078V13.36h18.18a4,4,0,0,0,4.045-2.946c.077-.407.128-.732.155-1a4.055,4.055,0,0,0-1.367-2.967,3.978,3.978,0,0,0-2.5-.924c0-.051-.268-.077-.814-.077h-17.7Z" transform="translate(-787.824 -0.072)" fill="url(#linear-gradient)"/>
      <path id="Caminho_9" data-name="Caminho 9" d="M1149.4.19h18.7v5.7h-18.874a2.533,2.533,0,0,0-2.714,2.175v.407a2.326,2.326,0,0,0,2.369,2.33h9.492q3.662,0,4.969.751a8.255,8.255,0,0,1,4.476,4.411,9.986,9.986,0,0,1,.694,3.563,8.45,8.45,0,0,1-3.89,7.01,9.627,9.627,0,0,1-2.657,1.137,19.149,19.149,0,0,1-3.717.25H1140.6l-.02-5.7h18.951a2.91,2.91,0,0,0,3.052-2.35l.039-.519a2.771,2.771,0,0,0-1.628-2.543,3.16,3.16,0,0,0-1.483-.307h-10.649a8.455,8.455,0,0,1-6.971-3.662,7.892,7.892,0,0,1-1.221-4.1V7.987q0-4.273,4.161-6.759A8.736,8.736,0,0,1,1149.4.19Z" transform="translate(-908.506 -0.151)" fill="url(#linear-gradient)"/>
    </g>
  </g>
</svg>
